inDegrees=no
num_controls=7
num_derivatives=13
num_iterations=132
num_multipliers=7
num_parameters=0
num_slacks=7
num_states=26
objective=0.464324
objective_accelerations=0.062174
objective_balance=0.004047
objective_effort=0.050966
objective_height=0.341461
objective_ligament=0.005677
solver_duration=1819.614758
status=Solve_Succeeded
success=true
DataType=double
version=3
OpenSimVersion=4.5
endheader
time	/jointset/ground_pelvis/pelvis_tilt/value	/jointset/ground_pelvis/pelvis_tx/value	/jointset/ground_pelvis/pelvis_ty/value	/jointset/hip_l/hip_flexion_l/value	/jointset/hip_l/hip_adduction_l/value	/jointset/hip_l/hip_rotation_l/value	/jointset/back/lumbar_extension/value	/jointset/patellofemoral_l/patellar_flexion_l/value	/jointset/knee_l/knee_flexion_l/value	/jointset/knee_l/knee_adduction_l/value	/jointset/knee_l/knee_rotation_l/value	/jointset/ankle_l/ankle_angle_l/value	/jointset/subtalar_l/subtalar_angle_l/value	/jointset/ground_pelvis/pelvis_tilt/speed	/jointset/ground_pelvis/pelvis_tx/speed	/jointset/ground_pelvis/pelvis_ty/speed	/jointset/hip_l/hip_flexion_l/speed	/jointset/hip_l/hip_adduction_l/speed	/jointset/hip_l/hip_rotation_l/speed	/jointset/back/lumbar_extension/speed	/jointset/patellofemoral_l/patellar_flexion_l/speed	/jointset/knee_l/knee_flexion_l/speed	/jointset/knee_l/knee_adduction_l/speed	/jointset/knee_l/knee_rotation_l/speed	/jointset/ankle_l/ankle_angle_l/speed	/jointset/subtalar_l/subtalar_angle_l/speed	/forceset/tau_hip_flexion_l	/forceset/tau_hip_adduction_l	/forceset/tau_hip_rotation_l	/forceset/tau_knee_flexion_l	/forceset/tau_ankle_angle_l	/forceset/tau_subtalar_angle_l	/forceset/tau_lumbar_extension	lambda_cid13_p0	lambda_cid13_p1	lambda_cid13_p2	lambda_cid13_p3	lambda_cid13_p4	lambda_cid13_p5	lambda_cid14_p0	/jointset/ground_pelvis/pelvis_tilt/accel	/jointset/ground_pelvis/pelvis_tx/accel	/jointset/ground_pelvis/pelvis_ty/accel	/jointset/hip_l/hip_flexion_l/accel	/jointset/hip_l/hip_adduction_l/accel	/jointset/hip_l/hip_rotation_l/accel	/jointset/back/lumbar_extension/accel	/jointset/patellofemoral_l/patellar_flexion_l/accel	/jointset/knee_l/knee_flexion_l/accel	/jointset/knee_l/knee_adduction_l/accel	/jointset/knee_l/knee_rotation_l/accel	/jointset/ankle_l/ankle_angle_l/accel	/jointset/subtalar_l/subtalar_angle_l/accel	gamma_cid13_p0	gamma_cid13_p1	gamma_cid13_p2	gamma_cid13_p3	gamma_cid13_p4	gamma_cid13_p5	gamma_cid14_p0
0.5	-0.1370238917748575	-0.0644824143263435	0.7477963780988434	1.165558632871287	-0.317083257796745	-0.05058334351295202	-0.8131672605397792	1.13227116104909	1.132271161047155	-0.03087391148450306	-0.1744919291665236	0.1871968612118576	0.04238595676412281	-0.194469808953569	-0.1639923775514107	-0.6572389617800799	2.221381483736078	0.004456305538423316	0.5686977407299554	-0.81643555281903	2.346202992778083	2.34620299277804	0.3502446020100048	-6.577056666355453e-05	0.479061741671671	0.1874461851771237	-0.3066005382260061	0.01392574470622959	-0.008832047501518265	-0.2861784288011644	0.1088243911593647	0.04045652119569916	0.3522897008776819	-8.468620157780189	-15.36742920591897	1.17321784425117	-16.46915854032979	-696.3226533107475	-67.58343996253127	-2.34073844545982	0.7487162299633658	0.9767393661521718	-0.3845207068170786	-1.820962579550566	0.2626613850087904	-0.7163498840548773	2.26802239221816	-1.754086800781151	-1.754086800781199	-0.2080123777158517	0.03627388882961851	-0.8111253649607535	0.1294908203156452	-2.677311578698458e-07	-1.499524963671507e-06	5.573183341224998e-07	-1.571034591236266e-07	-3.080697916163935e-07	-1.329814555052846e-07	-2.943506310357943e-07
0.51	-0.13893074337995	-0.06607355068870063	0.7412062892108229	1.187678334438319	-0.3170266976492849	-0.04493332854043632	-0.8212175417341636	1.155641994539563	1.155641994539735	-0.02738315821728753	-0.1744926618125884	0.1919455718011463	0.04426500988972557	-0.1868599822869437	-0.1542405792109419	-0.660623747658335	2.202267429810052	0.006840476687304854	0.5612609267219478	-0.7935512287963042	2.327639556847045	2.327639556847028	0.3478847927824233	-8.326289992423473e-05	0.4705909808482481	0.1883100400387794	-0.3143429104241131	0.0136174683527463	-0.008875006847659067	-0.2919428880820638	0.1083465412554703	0.04003790352392226	0.3599615340035782	-9.057763895213942	-14.9233435784759	0.9206592022299817	-16.19311344239366	-703.2460418743667	-67.39562037260626	-1.807058201991448	0.7731676290286179	0.9735160627122782	-0.2922560646633861	-2.000367141091658	0.2240497285940432	-0.7642755334104795	2.309055996585278	-1.956037162427324	-1.956037162423635	-0.2534120290483833	-0.02102988095364453	-0.8785311832379298	0.0568400399033688	-2.465453485619446e-07	-1.380459704111851e-06	5.323845892688218e-07	-1.550009914381018e-07	-2.823139829990138e-07	-8.850238904645061e-08	-2.767431591479844e-07
0.52	-0.1407602863695735	-0.06756734586870955	0.7345869927567531	1.209598147397697	-0.3169467448405824	-0.03935906738284815	-0.8290368959704638	1.178817480636093	1.178817480638373	-0.02391669240910188	-0.1744936231992947	0.1966068788337599	0.0461511030081075	-0.1790080858596537	-0.1445241410817657	-0.6630804749899406	2.181403762205505	0.009134837786834063	0.553546977744469	-0.7702501612021548	2.307133513989514	2.30713351398952	0.3453871102040798	-0.0001115186951734996	0.4615810303366305	0.1888541837329491	-0.3220852826222186	0.01330919199926543	-0.008917966193795375	-0.2977073473629629	0.1078686913515765	0.03961928585214849	0.3676333671294756	-9.649063792326469	-14.48603689188794	0.6773557709373054	-15.97765384916621	-710.2141523918845	-67.26510776101345	-1.34078618683016	0.7971301820963467	0.9696673238936153	-0.1989089974871984	-2.17088531525457	0.2446993751383325	-0.7717768779491242	2.351371106502918	-2.142608186080043	-2.14260818608013	-0.2355870478682618	0.03412119643191571	-0.9189633025997287	0.06554858681842447	-2.257080999504623e-07	-1.260993192145251e-06	5.113633703051918e-07	-1.513504303523571e-07	-2.590957204395906e-07	-4.625695500133308e-08	-2.590785499084993e-07
0.53	-0.14251023872483	-0.06896423728687862	0.7279477888523125	1.231300800175959	-0.3168442186804427	-0.033863107253456	-0.8366212900763651	1.201778393827513	1.201778393829155	-0.02047585788616554	-0.1744947103296618	0.2011755607361325	0.04804115641357848	-0.1709519927367977	-0.1348676545658616	-0.6646021242963001	2.158845074370999	0.01135299543965632	0.5456049996487941	-0.7465769244002255	2.284737768937597	2.2847377689376	0.3427530184664052	-0.0001094809477233556	0.4520793055695087	0.1891018950691593	-0.3294691458098254	0.01282128279566302	-0.00897401288086379	-0.3036053516750037	0.107363774941994	0.03909906333552191	0.3749445871983079	-10.25363734241903	-14.00110246746055	0.4251151425170252	-15.63416556628031	-717.0704472405279	-67.08908130071718	-0.94330229650258	0.8143818988321522	0.9615826267007149	-0.1051150369954953	-2.340646145931107	0.2077858509504651	-0.8116593662709767	2.383060303765737	-2.334711008229076	-2.33471100822946	-0.2815570741964659	-0.01719306481154213	-0.9772422149845534	-0.003674608801963895	-2.054226056147649e-07	-1.153220081518334e-06	4.803374808327257e-07	-1.487251182812726e-07	-2.369692477142786e-07	-1.296561188520679e-08	-2.414768557490382e-07
0.54	-0.1441787235445681	-0.07026497517763633	0.721298104026851	1.252769408950199	-0.316720028565655	-0.02844781712319989	-0.8439673997469015	1.224506018899717	1.224506018900722	-0.01706221164810072	-0.1744958647082963	0.2056469323605906	0.04993207552924673	-0.1627145787558608	-0.1252934355994943	-0.6651766591940705	2.134594961401192	0.0134676287163299	0.5374129779173473	-0.722593274129181	2.26047589014642	2.26047589014642	0.3399494532295559	-0.0001249683487967141	0.4421189747537409	0.189027325772399	-0.3368530089974309	0.01233337359206222	-0.009030059567918605	-0.309503355987044	0.1068588585324117	0.03857884081889722	0.3822558072671413	-10.86183238829104	-13.52267190652822	0.1820646914529727	-15.34632380678373	-723.989856572853	-66.96813263040865	-0.6161866837733663	0.833394353712571	0.9532138139862046	-0.009486115769409479	-2.509170342314918	0.2239944999086098	-0.8217856051034601	2.413453800325986	-2.5158349339321	-2.515834933932073	-0.2694817477031698	0.0306161667272321	-1.010684512328959	0.001092460224325559	-1.857475628182338e-07	-1.058384351097024e-06	4.382425942015471e-07	-1.472341242689612e-07	-2.160507126777705e-07	1.041907743714183e-08	-2.239447697632206e-07
0.55	-0.1457640473416187	-0.07147046923589144	0.7146474102289097	1.273987269028393	-0.3165751074797656	-0.02311557217389747	-0.8510722666879567	1.2469818992961	1.246981899295891	-0.01367731660587826	-0.1744970636473984	0.2100165824994673	0.05182079136396767	-0.1543288892362993	-0.1158270560528494	-0.6648031116099395	2.108706098790134	0.01549958099133556	0.5289984809003099	-0.6983459310854176	2.234403856521121	2.234403856521087	0.3370023614744917	-0.000116329677202888	0.4317492733481239	0.1886648098661599	-0.3438726225206375	0.01177915983159294	-0.009102648917126307	-0.3153808904689713	0.1061910894918039	0.03792207641015281	0.3891691751799021	-11.52220266968779	-12.97329647046153	-0.0751624210683398	-14.8907636095209	-730.6871432764808	-66.73744961491478	-0.3610953117118842	0.8443266003001814	0.9400687405638738	0.08458258500906149	-2.669412100299486	0.1902579462411264	-0.8571200613529432	2.435502005914092	-2.697294591798477	-2.697294591803597	-0.3115911734957117	-0.01415817873166684	-1.059429036928855	-0.06246582256134059	-1.65168673622568e-07	-9.575385399112809e-07	3.976305237470146e-07	-1.44223725694559e-07	-1.950858613112275e-07	3.146248366233134e-08	-2.051048483349907e-07
0.5600000000000001	-0.1472648801736297	-0.07258195575556814	0.7080052133847105	1.294938106904517	-0.3164103744001367	-0.017868639857035	-0.8579336347086717	1.269188177953235	1.269188177951814	-0.01032274613802417	-0.1744982053790065	0.2142806724078376	0.05370437359832358	-0.1458163857478444	-0.1064919278838064	-0.6634772684456238	2.081190520987144	0.01743002746412358	0.52035045142931	-0.6738934900611477	2.206555542297034	2.206555542296967	0.3338845383559226	-0.0001135268498934093	0.4210069286524755	0.188000605699389	-0.3508922360438422	0.01122494607112694	-0.009175238266331336	-0.3212584249508985	0.1055233204511967	0.03726531200141267	0.3960825430926646	-12.18717543683721	-12.43022902739789	-0.323258211903606	-14.486490038416	-737.4582206843098	-66.55842893237912	-0.1801423180378717	0.8587571474912915	0.9269635384657936	0.1809730002675503	-2.834513380701322	0.2036933394650921	-0.8684920958959549	2.454473396427325	-2.871091053689704	-2.871091053689571	-0.3036280204041387	0.0294489978703813	-1.085213170335278	-0.05924519188205671	-1.435051687479408e-07	-8.494806318082181e-07	3.587978327044574e-07	-1.393900416456477e-07	-1.740654303486425e-07	4.969635017092999e-08	-1.84695524375866e-07
0.5700000000000001	-0.148680099868491	-0.07360081933784529	0.701381027822691	1.315605843031718	-0.3162267682297507	-0.0127092799215426	-0.8645496128956576	1.291107263986174	1.291107263985376	-0.007000107755154073	-0.1744992029037989	0.2184356502170617	0.05557993410925824	-0.1372177404089097	-0.09730917013888997	-0.6612009281870632	2.052094539360147	0.019268395451479	0.5114794713562785	-0.6492874510222525	2.176977230521193	2.176977230521183	0.3306112104540164	-9.777131937387578e-05	0.4099405697408637	0.1870565190351445	-0.3573989970849953	0.0105820212033384	-0.009258300087562767	-0.3272123157608923	0.1048922541841046	0.03646535738063159	0.4024831555058944	-12.83546653046695	-11.82330332999258	-0.5867793659363251	-13.97408231946088	-743.9332417036205	-66.27965602352545	-0.07430739118144566	0.8618701206700515	0.9096473261799755	0.2747694693022583	-2.986485936306877	0.1704911825413292	-0.9028786623289489	2.465873604737234	-3.04383167479873	-3.043831674790246	-0.3441261478320043	-0.01406492000659585	-1.124594540778061	-0.1201504704958089	-1.058722856294518e-07	-6.542067683207498e-07	3.254422364775308e-07	-1.282790309601169e-07	-1.376330987437255e-07	7.53404300576574e-08	-1.500646205193023e-07
0.58	-0.1500090427312482	-0.07452871225593824	0.6947843666493874	1.335974750266128	-0.3160254618486565	-0.007639925326644935	-0.8709190898028314	1.312722040814302	1.312722040814127	-0.003711190845852907	-0.1745003836234165	0.2224785149793289	0.05744442174019045	-0.1285610193269519	-0.08829779504696784	-0.657972390702429	2.021424742428835	0.02097006960565601	0.5023493833103593	-0.6245932340986911	2.145693701334655	2.145693701334701	0.3271402436421859	-0.0001501658148272398	0.3985843192610949	0.185786029698894	-0.363905758126146	0.009939096335552627	-0.009341361908791446	-0.333166206570886	0.1042611879170128	0.03566540275985412	0.4088837679191261	-13.48938539827151	-11.22207018265743	-0.8417652572004385	-13.50818067962658	-750.4939211321856	-66.04743113914063	-0.04275328554669526	0.8703722960959616	0.8926870078668989	0.3714124454822972	-3.149276441563937	0.1763545728294209	-0.9203136904734732	2.472108973360561	-3.212134535829234	-3.212134535829361	-0.3431558023890048	0.01581899267582033	-1.143191483966687	-0.1245257262832544	-4.744207270500472e-08	-3.453493350303418e-07	2.992196009407279e-07	-1.089928972129424e-07	-8.112945467437738e-08	1.106350203903192e-07	-9.691258935444702e-08
0.59	-0.1512512633268422	-0.07536741587448059	0.6882246960047907	1.356029380315039	-0.3158073705444369	-0.00266265339256184	-0.877041218269039	1.334015792477359	1.334015792477283	-0.0004577114192471219	-0.1745014925330016	0.2264066826844377	0.05929523189955352	-0.1198818258353845	-0.07947852653161022	-0.6538048992922894	1.989247244705598	0.02262478473680761	0.4930657414065454	-0.5998316843883635	2.112786201197399	2.112786201197424	0.3235184242990666	-8.260678682895338e-05	0.3870153622331393	0.1843243834674024	-0.3700370619116754	0.009246470438482557	-0.009438247211931105	-0.3388722677469765	0.1033230792074225	0.03483328469710081	0.414854287087401	-14.22627655906251	-10.59362440526375	-1.099623201403306	-12.87407186570211	-756.6748441555352	-65.77106069774901	-0.04263143183927127	0.8668729059787463	0.8711875539999288	0.4629337221923397	-3.290100037715996	0.1564860228717851	-0.9383380125867143	2.478294183086323	-3.370609109964278	-3.370609109967343	-0.3773174538491325	0.0006344391908356659	-1.168826991222913	-0.1647350074243062	-4.38005902926062e-09	-1.489416290983798e-07	2.375873692409542e-07	-1.009350033965631e-07	-4.0528669144416e-08	1.022672204843774e-07	-5.618772198536994e-08
